<svg xmlns="http://www.w3.org/2000/svg" viewBox="0 0 188 188"><defs><style>.cls-1{fill:#fff;opacity:0.7;isolation:isolate;}.cls-2,.cls-3{fill:#572ee5;}.cls-2{fill-opacity:0.7;}</style></defs><g id="Capa_2" data-name="Capa 2"><g id="Capa_1-2" data-name="Capa 1"><g id="_00-UI-Kit" data-name="00-UI-Kit"><g id="icon-fav"><rect id="Rectangle" class="cls-1" width="188" height="188" rx="35.25"/><path id="path-1" class="cls-2" d="M95.63,55.8a30,30,0,1,1,42.45,42.45L97.26,139.06a4.61,4.61,0,0,1-6.53,0L49.92,98.25A30,30,0,1,1,92.37,55.79L94,57.42ZM94,129.27l32.66-32.66,4.89-4.89a20.79,20.79,0,1,0-29.39-29.4l-4.9,4.9a4.62,4.62,0,0,1-6.53,0l-4.89-4.9a20.79,20.79,0,0,0-29.39,29.4Z"/></g></g><g id="GIFOS"><g id="_24-Mobile-Gifo-Max" data-name="24-Mobile-Gifo-Max"><g id="icon-fav-active"><path id="path-1-2" data-name="path-1" class="cls-3" d="M116.85,46a30.08,30.08,0,0,1,21.47,9.06,31.35,31.35,0,0,1,0,43.74L97,140.85a4.62,4.62,0,0,1-6.6,0l-41.27-42a31.33,31.33,0,0,1,0-43.74,30,30,0,0,1,42.92,0l1.65,1.68,1.65-1.68A30.06,30.06,0,0,1,116.85,46Z"/></g></g></g></g></g></svg>